<svg xmlns="http://www.w3.org/2000/svg" fill="none" viewBox="0 0 550 6">
<g opacity="0.24">
<circle cx="1" cy="1" r="1" fill="#D9D9D9"/>
<circle cx="5" cy="1" r="1" fill="#D9D9D9"/>
<circle cx="9" cy="1" r="1" fill="#D9D9D9"/>
<circle cx="13" cy="1" r="1" fill="#D9D9D9"/>
<circle cx="17" cy="1" r="1" fill="#D9D9D9"/>
<circle cx="21" cy="1" r="1" fill="#D9D9D9"/>
<circle cx="25" cy="1" r="1" fill="#D9D9D9"/>
<circle cx="29" cy="1" r="1" fill="#D9D9D9"/>
<circle cx="33" cy="1" r="1" fill="#D9D9D9"/>
<circle cx="37" cy="1" r="1" fill="#D9D9D9"/>
<circle cx="41" cy="1" r="1" fill="#D9D9D9"/>
<circle cx="45" cy="1" r="1" fill="#D9D9D9"/>
<circle cx="49" cy="1" r="1" fill="#D9D9D9"/>
<circle cx="53" cy="1" r="1" fill="#D9D9D9"/>
<circle cx="57" cy="1" r="1" fill="#D9D9D9"/>
<circle cx="61" cy="1" r="1" fill="#D9D9D9"/>
<circle cx="65" cy="1" r="1" fill="#D9D9D9"/>
<circle cx="69" cy="1" r="1" fill="#D9D9D9"/>
<circle cx="73" cy="1" r="1" fill="#D9D9D9"/>
<circle cx="77" cy="1" r="1" fill="#D9D9D9"/>
<circle cx="81" cy="1" r="1" fill="#D9D9D9"/>
<circle cx="85" cy="1" r="1" fill="#D9D9D9"/>
<circle cx="89" cy="1" r="1" fill="#D9D9D9"/>
<circle cx="93" cy="1" r="1" fill="#D9D9D9"/>
<circle cx="97" cy="1" r="1" fill="#D9D9D9"/>
<circle cx="101" cy="1" r="1" fill="#D9D9D9"/>
<circle cx="105" cy="1" r="1" fill="#D9D9D9"/>
<circle cx="109" cy="1" r="1" fill="#D9D9D9"/>
<circle cx="113" cy="1" r="1" fill="#D9D9D9"/>
<circle cx="117" cy="1" r="1" fill="#D9D9D9"/>
<circle cx="121" cy="1" r="1" fill="#D9D9D9"/>
<circle cx="125" cy="1" r="1" fill="#D9D9D9"/>
<circle cx="129" cy="1" r="1" fill="#D9D9D9"/>
<circle cx="133" cy="1" r="1" fill="#D9D9D9"/>
<circle cx="137" cy="1" r="1" fill="#D9D9D9"/>
<circle cx="141" cy="1" r="1" fill="#D9D9D9"/>
<circle cx="145" cy="1" r="1" fill="#D9D9D9"/>
<circle cx="149" cy="1" r="1" fill="#D9D9D9"/>
<circle cx="153" cy="1" r="1" fill="#D9D9D9"/>
<circle cx="157" cy="1" r="1" fill="#D9D9D9"/>
<circle cx="161" cy="1" r="1" fill="#D9D9D9"/>
<circle cx="165" cy="1" r="1" fill="#D9D9D9"/>
<circle cx="169" cy="1" r="1" fill="#D9D9D9"/>
<circle cx="173" cy="1" r="1" fill="#D9D9D9"/>
<circle cx="177" cy="1" r="1" fill="#D9D9D9"/>
<circle cx="181" cy="1" r="1" fill="#D9D9D9"/>
<circle cx="185" cy="1" r="1" fill="#D9D9D9"/>
<circle cx="189" cy="1" r="1" fill="#D9D9D9"/>
<circle cx="193" cy="1" r="1" fill="#D9D9D9"/>
<circle cx="197" cy="1" r="1" fill="#D9D9D9"/>
<circle cx="201" cy="1" r="1" fill="#D9D9D9"/>
<circle cx="205" cy="1" r="1" fill="#D9D9D9"/>
<circle cx="209" cy="1" r="1" fill="#D9D9D9"/>
<circle cx="213" cy="1" r="1" fill="#D9D9D9"/>
<circle cx="217" cy="1" r="1" fill="#D9D9D9"/>
<circle cx="221" cy="1" r="1" fill="#D9D9D9"/>
<circle cx="225" cy="1" r="1" fill="#D9D9D9"/>
<circle cx="229" cy="1" r="1" fill="#D9D9D9"/>
<circle cx="233" cy="1" r="1" fill="#D9D9D9"/>
<circle cx="237" cy="1" r="1" fill="#D9D9D9"/>
<circle cx="241" cy="1" r="1" fill="#D9D9D9"/>
<circle cx="245" cy="1" r="1" fill="#D9D9D9"/>
<circle cx="249" cy="1" r="1" fill="#D9D9D9"/>
<circle cx="253" cy="1" r="1" fill="#D9D9D9"/>
<circle cx="257" cy="1" r="1" fill="#D9D9D9"/>
<circle cx="261" cy="1" r="1" fill="#D9D9D9"/>
<circle cx="265" cy="1" r="1" fill="#D9D9D9"/>
<circle cx="269" cy="1" r="1" fill="#D9D9D9"/>
<circle cx="273" cy="1" r="1" fill="#D9D9D9"/>
<circle cx="277" cy="1" r="1" fill="#D9D9D9"/>
<circle cx="281" cy="1" r="1" fill="#D9D9D9"/>
<circle cx="285" cy="1" r="1" fill="#D9D9D9"/>
<circle cx="289" cy="1" r="1" fill="#D9D9D9"/>
<circle cx="293" cy="1" r="1" fill="#D9D9D9"/>
<circle cx="297" cy="1" r="1" fill="#D9D9D9"/>
<circle cx="301" cy="1" r="1" fill="#D9D9D9"/>
<circle cx="305" cy="1" r="1" fill="#D9D9D9"/>
<circle cx="309" cy="1" r="1" fill="#D9D9D9"/>
<circle cx="313" cy="1" r="1" fill="#D9D9D9"/>
<circle cx="317" cy="1" r="1" fill="#D9D9D9"/>
<circle cx="321" cy="1" r="1" fill="#D9D9D9"/>
<circle cx="325" cy="1" r="1" fill="#D9D9D9"/>
<circle cx="329" cy="1" r="1" fill="#D9D9D9"/>
<circle cx="333" cy="1" r="1" fill="#D9D9D9"/>
<circle cx="337" cy="1" r="1" fill="#D9D9D9"/>
<circle cx="341" cy="1" r="1" fill="#D9D9D9"/>
<circle cx="345" cy="1" r="1" fill="#D9D9D9"/>
<circle cx="349" cy="1" r="1" fill="#D9D9D9"/>
<circle cx="353" cy="1" r="1" fill="#D9D9D9"/>
<circle cx="357" cy="1" r="1" fill="#D9D9D9"/>
<circle cx="361" cy="1" r="1" fill="#D9D9D9"/>
<circle cx="365" cy="1" r="1" fill="#D9D9D9"/>
<circle cx="369" cy="1" r="1" fill="#D9D9D9"/>
<circle cx="373" cy="1" r="1" fill="#D9D9D9"/>
<circle cx="377" cy="1" r="1" fill="#D9D9D9"/>
<circle cx="381" cy="1" r="1" fill="#D9D9D9"/>
<circle cx="385" cy="1" r="1" fill="#D9D9D9"/>
<circle cx="389" cy="1" r="1" fill="#D9D9D9"/>
<circle cx="393" cy="1" r="1" fill="#D9D9D9"/>
<circle cx="397" cy="1" r="1" fill="#D9D9D9"/>
<circle cx="401" cy="1" r="1" fill="#D9D9D9"/>
<circle cx="405" cy="1" r="1" fill="#D9D9D9"/>
<circle cx="409" cy="1" r="1" fill="#D9D9D9"/>
<circle cx="413" cy="1" r="1" fill="#D9D9D9"/>
<circle cx="417" cy="1" r="1" fill="#D9D9D9"/>
<circle cx="421" cy="1" r="1" fill="#D9D9D9"/>
<circle cx="425" cy="1" r="1" fill="#D9D9D9"/>
<circle cx="429" cy="1" r="1" fill="#D9D9D9"/>
<circle cx="433" cy="1" r="1" fill="#D9D9D9"/>
<circle cx="437" cy="1" r="1" fill="#D9D9D9"/>
<circle cx="441" cy="1" r="1" fill="#D9D9D9"/>
<circle cx="445" cy="1" r="1" fill="#D9D9D9"/>
<circle cx="449" cy="1" r="1" fill="#D9D9D9"/>
<circle cx="453" cy="1" r="1" fill="#D9D9D9"/>
<circle cx="457" cy="1" r="1" fill="#D9D9D9"/>
<circle cx="461" cy="1" r="1" fill="#D9D9D9"/>
<circle cx="465" cy="1" r="1" fill="#D9D9D9"/>
<circle cx="469" cy="1" r="1" fill="#D9D9D9"/>
<circle cx="473" cy="1" r="1" fill="#D9D9D9"/>
<circle cx="477" cy="1" r="1" fill="#D9D9D9"/>
<circle cx="481" cy="1" r="1" fill="#D9D9D9"/>
<circle cx="485" cy="1" r="1" fill="#D9D9D9"/>
<circle cx="489" cy="1" r="1" fill="#D9D9D9"/>
<circle cx="493" cy="1" r="1" fill="#D9D9D9"/>
<circle cx="497" cy="1" r="1" fill="#D9D9D9"/>
<circle cx="501" cy="1" r="1" fill="#D9D9D9"/>
<circle cx="505" cy="1" r="1" fill="#D9D9D9"/>
<circle cx="509" cy="1" r="1" fill="#D9D9D9"/>
<circle cx="513" cy="1" r="1" fill="#D9D9D9"/>
<circle cx="517" cy="1" r="1" fill="#D9D9D9"/>
<circle cx="521" cy="1" r="1" fill="#D9D9D9"/>
<circle cx="525" cy="1" r="1" fill="#D9D9D9"/>
<circle cx="529" cy="1" r="1" fill="#D9D9D9"/>
<circle cx="533" cy="1" r="1" fill="#D9D9D9"/>
<circle cx="537" cy="1" r="1" fill="#D9D9D9"/>
<circle cx="541" cy="1" r="1" fill="#D9D9D9"/>
<circle cx="545" cy="1" r="1" fill="#D9D9D9"/>
<circle cx="549" cy="1" r="1" fill="#D9D9D9"/>
<circle cx="1" cy="5" r="1" fill="#D9D9D9"/>
<circle cx="5" cy="5" r="1" fill="#D9D9D9"/>
<circle cx="9" cy="5" r="1" fill="#D9D9D9"/>
<circle cx="13" cy="5" r="1" fill="#D9D9D9"/>
<circle cx="17" cy="5" r="1" fill="#D9D9D9"/>
<circle cx="21" cy="5" r="1" fill="#D9D9D9"/>
<circle cx="25" cy="5" r="1" fill="#D9D9D9"/>
<circle cx="29" cy="5" r="1" fill="#D9D9D9"/>
<circle cx="33" cy="5" r="1" fill="#D9D9D9"/>
<circle cx="37" cy="5" r="1" fill="#D9D9D9"/>
<circle cx="41" cy="5" r="1" fill="#D9D9D9"/>
<circle cx="45" cy="5" r="1" fill="#D9D9D9"/>
<circle cx="49" cy="5" r="1" fill="#D9D9D9"/>
<circle cx="53" cy="5" r="1" fill="#D9D9D9"/>
<circle cx="57" cy="5" r="1" fill="#D9D9D9"/>
<circle cx="61" cy="5" r="1" fill="#D9D9D9"/>
<circle cx="65" cy="5" r="1" fill="#D9D9D9"/>
<circle cx="69" cy="5" r="1" fill="#D9D9D9"/>
<circle cx="73" cy="5" r="1" fill="#D9D9D9"/>
<circle cx="77" cy="5" r="1" fill="#D9D9D9"/>
<circle cx="81" cy="5" r="1" fill="#D9D9D9"/>
<circle cx="85" cy="5" r="1" fill="#D9D9D9"/>
<circle cx="89" cy="5" r="1" fill="#D9D9D9"/>
<circle cx="93" cy="5" r="1" fill="#D9D9D9"/>
<circle cx="97" cy="5" r="1" fill="#D9D9D9"/>
<circle cx="101" cy="5" r="1" fill="#D9D9D9"/>
<circle cx="105" cy="5" r="1" fill="#D9D9D9"/>
<circle cx="109" cy="5" r="1" fill="#D9D9D9"/>
<circle cx="113" cy="5" r="1" fill="#D9D9D9"/>
<circle cx="117" cy="5" r="1" fill="#D9D9D9"/>
<circle cx="121" cy="5" r="1" fill="#D9D9D9"/>
<circle cx="125" cy="5" r="1" fill="#D9D9D9"/>
<circle cx="129" cy="5" r="1" fill="#D9D9D9"/>
<circle cx="133" cy="5" r="1" fill="#D9D9D9"/>
<circle cx="137" cy="5" r="1" fill="#D9D9D9"/>
<circle cx="141" cy="5" r="1" fill="#D9D9D9"/>
<circle cx="145" cy="5" r="1" fill="#D9D9D9"/>
<circle cx="149" cy="5" r="1" fill="#D9D9D9"/>
<circle cx="153" cy="5" r="1" fill="#D9D9D9"/>
<circle cx="157" cy="5" r="1" fill="#D9D9D9"/>
<circle cx="161" cy="5" r="1" fill="#D9D9D9"/>
<circle cx="165" cy="5" r="1" fill="#D9D9D9"/>
<circle cx="169" cy="5" r="1" fill="#D9D9D9"/>
<circle cx="173" cy="5" r="1" fill="#D9D9D9"/>
<circle cx="177" cy="5" r="1" fill="#D9D9D9"/>
<circle cx="181" cy="5" r="1" fill="#D9D9D9"/>
<circle cx="185" cy="5" r="1" fill="#D9D9D9"/>
<circle cx="189" cy="5" r="1" fill="#D9D9D9"/>
<circle cx="193" cy="5" r="1" fill="#D9D9D9"/>
<circle cx="197" cy="5" r="1" fill="#D9D9D9"/>
<circle cx="201" cy="5" r="1" fill="#D9D9D9"/>
<circle cx="205" cy="5" r="1" fill="#D9D9D9"/>
<circle cx="209" cy="5" r="1" fill="#D9D9D9"/>
<circle cx="213" cy="5" r="1" fill="#D9D9D9"/>
<circle cx="217" cy="5" r="1" fill="#D9D9D9"/>
<circle cx="221" cy="5" r="1" fill="#D9D9D9"/>
<circle cx="225" cy="5" r="1" fill="#D9D9D9"/>
<circle cx="229" cy="5" r="1" fill="#D9D9D9"/>
<circle cx="233" cy="5" r="1" fill="#D9D9D9"/>
<circle cx="237" cy="5" r="1" fill="#D9D9D9"/>
<circle cx="241" cy="5" r="1" fill="#D9D9D9"/>
<circle cx="245" cy="5" r="1" fill="#D9D9D9"/>
<circle cx="249" cy="5" r="1" fill="#D9D9D9"/>
<circle cx="253" cy="5" r="1" fill="#D9D9D9"/>
<circle cx="257" cy="5" r="1" fill="#D9D9D9"/>
<circle cx="261" cy="5" r="1" fill="#D9D9D9"/>
<circle cx="265" cy="5" r="1" fill="#D9D9D9"/>
<circle cx="269" cy="5" r="1" fill="#D9D9D9"/>
<circle cx="273" cy="5" r="1" fill="#D9D9D9"/>
<circle cx="277" cy="5" r="1" fill="#D9D9D9"/>
<circle cx="281" cy="5" r="1" fill="#D9D9D9"/>
<circle cx="285" cy="5" r="1" fill="#D9D9D9"/>
<circle cx="289" cy="5" r="1" fill="#D9D9D9"/>
<circle cx="293" cy="5" r="1" fill="#D9D9D9"/>
<circle cx="297" cy="5" r="1" fill="#D9D9D9"/>
<circle cx="301" cy="5" r="1" fill="#D9D9D9"/>
<circle cx="305" cy="5" r="1" fill="#D9D9D9"/>
<circle cx="309" cy="5" r="1" fill="#D9D9D9"/>
<circle cx="313" cy="5" r="1" fill="#D9D9D9"/>
<circle cx="317" cy="5" r="1" fill="#D9D9D9"/>
<circle cx="321" cy="5" r="1" fill="#D9D9D9"/>
<circle cx="325" cy="5" r="1" fill="#D9D9D9"/>
<circle cx="329" cy="5" r="1" fill="#D9D9D9"/>
<circle cx="333" cy="5" r="1" fill="#D9D9D9"/>
<circle cx="337" cy="5" r="1" fill="#D9D9D9"/>
<circle cx="341" cy="5" r="1" fill="#D9D9D9"/>
<circle cx="345" cy="5" r="1" fill="#D9D9D9"/>
<circle cx="349" cy="5" r="1" fill="#D9D9D9"/>
<circle cx="353" cy="5" r="1" fill="#D9D9D9"/>
<circle cx="357" cy="5" r="1" fill="#D9D9D9"/>
<circle cx="361" cy="5" r="1" fill="#D9D9D9"/>
<circle cx="365" cy="5" r="1" fill="#D9D9D9"/>
<circle cx="369" cy="5" r="1" fill="#D9D9D9"/>
<circle cx="373" cy="5" r="1" fill="#D9D9D9"/>
<circle cx="377" cy="5" r="1" fill="#D9D9D9"/>
<circle cx="381" cy="5" r="1" fill="#D9D9D9"/>
<circle cx="385" cy="5" r="1" fill="#D9D9D9"/>
<circle cx="389" cy="5" r="1" fill="#D9D9D9"/>
<circle cx="393" cy="5" r="1" fill="#D9D9D9"/>
<circle cx="397" cy="5" r="1" fill="#D9D9D9"/>
<circle cx="401" cy="5" r="1" fill="#D9D9D9"/>
<circle cx="405" cy="5" r="1" fill="#D9D9D9"/>
<circle cx="409" cy="5" r="1" fill="#D9D9D9"/>
<circle cx="413" cy="5" r="1" fill="#D9D9D9"/>
<circle cx="417" cy="5" r="1" fill="#D9D9D9"/>
<circle cx="421" cy="5" r="1" fill="#D9D9D9"/>
<circle cx="425" cy="5" r="1" fill="#D9D9D9"/>
<circle cx="429" cy="5" r="1" fill="#D9D9D9"/>
<circle cx="433" cy="5" r="1" fill="#D9D9D9"/>
<circle cx="437" cy="5" r="1" fill="#D9D9D9"/>
<circle cx="441" cy="5" r="1" fill="#D9D9D9"/>
<circle cx="445" cy="5" r="1" fill="#D9D9D9"/>
<circle cx="449" cy="5" r="1" fill="#D9D9D9"/>
<circle cx="453" cy="5" r="1" fill="#D9D9D9"/>
<circle cx="457" cy="5" r="1" fill="#D9D9D9"/>
<circle cx="461" cy="5" r="1" fill="#D9D9D9"/>
<circle cx="465" cy="5" r="1" fill="#D9D9D9"/>
<circle cx="469" cy="5" r="1" fill="#D9D9D9"/>
<circle cx="473" cy="5" r="1" fill="#D9D9D9"/>
<circle cx="477" cy="5" r="1" fill="#D9D9D9"/>
<circle cx="481" cy="5" r="1" fill="#D9D9D9"/>
<circle cx="485" cy="5" r="1" fill="#D9D9D9"/>
<circle cx="489" cy="5" r="1" fill="#D9D9D9"/>
<circle cx="493" cy="5" r="1" fill="#D9D9D9"/>
<circle cx="497" cy="5" r="1" fill="#D9D9D9"/>
<circle cx="501" cy="5" r="1" fill="#D9D9D9"/>
<circle cx="505" cy="5" r="1" fill="#D9D9D9"/>
<circle cx="509" cy="5" r="1" fill="#D9D9D9"/>
<circle cx="513" cy="5" r="1" fill="#D9D9D9"/>
<circle cx="517" cy="5" r="1" fill="#D9D9D9"/>
<circle cx="521" cy="5" r="1" fill="#D9D9D9"/>
<circle cx="525" cy="5" r="1" fill="#D9D9D9"/>
<circle cx="529" cy="5" r="1" fill="#D9D9D9"/>
<circle cx="533" cy="5" r="1" fill="#D9D9D9"/>
<circle cx="537" cy="5" r="1" fill="#D9D9D9"/>
<circle cx="541" cy="5" r="1" fill="#D9D9D9"/>
<circle cx="545" cy="5" r="1" fill="#D9D9D9"/>
<circle cx="549" cy="5" r="1" fill="#D9D9D9"/>
</g>
</svg>