<svg width="614" height="794" viewBox="0 0 614 794" fill="none" xmlns="http://www.w3.org/2000/svg">
<g clip-path="url(#clip0_1_2949)">
<g opacity="0.04">
<path d="M1 1L613 1.00005" stroke="#D0E5F9"/>
<path d="M1 17L613 17.0001" stroke="#D0E5F9"/>
<path d="M1 33.0001L613 33.0002" stroke="#D0E5F9"/>
<path d="M1 49.0001L613 49.0002" stroke="#D0E5F9"/>
<path d="M1 65.0002L613 65.0003" stroke="#D0E5F9"/>
<path d="M1 81.0002L613 81.0003" stroke="#D0E5F9"/>
<path d="M1 97.0003L613 97.0004" stroke="#D0E5F9"/>
<path d="M1 113L613 113" stroke="#D0E5F9"/>
<path d="M1 129L613 129" stroke="#D0E5F9"/>
<path d="M1 145L613 145.001" stroke="#D0E5F9"/>
<path d="M1 161.001L613 161.001" stroke="#D0E5F9"/>
<path d="M1 177.001L613 177.001" stroke="#D0E5F9"/>
<path d="M1 193.001L613 193.001" stroke="#D0E5F9"/>
<path d="M1 209.001L613 209.001" stroke="#D0E5F9"/>
<path d="M1 225.001L613 225.001" stroke="#D0E5F9"/>
<path d="M1 241.001L613 241.001" stroke="#D0E5F9"/>
<path d="M1 257.001L613 257.001" stroke="#D0E5F9"/>
<path d="M1 273.001L613 273.001" stroke="#D0E5F9"/>
<path d="M1 289.001L613 289.001" stroke="#D0E5F9"/>
<path d="M1 305.001L613 305.001" stroke="#D0E5F9"/>
<path d="M1 321.001L613 321.001" stroke="#D0E5F9"/>
<path d="M1 337.001L613 337.001" stroke="#D0E5F9"/>
<path d="M1 353.001L613 353.001" stroke="#D0E5F9"/>
<path d="M1 369.001L613 369.001" stroke="#D0E5F9"/>
<path d="M1 385.001L613 385.001" stroke="#D0E5F9"/>
<path d="M1 401.001L613 401.002" stroke="#D0E5F9"/>
<path d="M1 417.002L613 417.002" stroke="#D0E5F9"/>
<path d="M1 433.002L613 433.002" stroke="#D0E5F9"/>
<path d="M1 449.002L613 449.002" stroke="#D0E5F9"/>
<path d="M1 465.002L613 465.002" stroke="#D0E5F9"/>
<path d="M1 481.002L613 481.002" stroke="#D0E5F9"/>
<path d="M1 497.002L613 497.002" stroke="#D0E5F9"/>
<path d="M1 513.002L613 513.002" stroke="#D0E5F9"/>
<path d="M1 529.002L613 529.002" stroke="#D0E5F9"/>
<path d="M1 545.002L613 545.002" stroke="#D0E5F9"/>
<path d="M1 561.002L613 561.002" stroke="#D0E5F9"/>
<path d="M1 577.002L613 577.002" stroke="#D0E5F9"/>
<path d="M1 593.002L613 593.002" stroke="#D0E5F9"/>
<path d="M1 609.002L613 609.002" stroke="#D0E5F9"/>
<path d="M1 625.002L613 625.002" stroke="#D0E5F9"/>
<path d="M1 641.002L613 641.002" stroke="#D0E5F9"/>
<path d="M1 657.002L613 657.002" stroke="#D0E5F9"/>
<path d="M1 673.003L613 673.003" stroke="#D0E5F9"/>
<path d="M1 689.003L613 689.003" stroke="#D0E5F9"/>
<path d="M1 705.003L613 705.003" stroke="#D0E5F9"/>
<path d="M1 721.003L613 721.003" stroke="#D0E5F9"/>
<path d="M1 737.003L613 737.003" stroke="#D0E5F9"/>
<path d="M0.46967 752.472C0.176777 752.765 0.176777 753.24 0.46967 753.533L5.24264 758.306C5.53553 758.599 6.01041 758.599 6.3033 758.306C6.59619 758.013 6.59619 757.538 6.3033 757.245L2.06066 753.003L6.3033 748.76C6.59619 748.467 6.59619 747.992 6.3033 747.7C6.01041 747.407 5.53553 747.407 5.24264 747.7L0.46967 752.472ZM613.53 753.533C613.823 753.24 613.823 752.765 613.53 752.473L608.757 747.7C608.464 747.407 607.99 747.407 607.697 747.7C607.404 747.992 607.404 748.467 607.697 748.76L611.939 753.003L607.697 757.246C607.404 757.538 607.404 758.013 607.697 758.306C607.99 758.599 608.464 758.599 608.757 758.306L613.53 753.533ZM1 753.753L613 753.753L613 752.253L1 752.253L1 753.753Z" fill="#4EA8FD"/>
<path d="M1 769.003L613 769.003" stroke="#D0E5F9"/>
<path d="M1 785.003L613 785.003" stroke="#D0E5F9"/>
<path d="M3 1V793" stroke="#D0E5F9"/>
<path d="M19 1V793" stroke="#D0E5F9"/>
<path d="M35.5303 0.46967C35.2374 0.176777 34.7626 0.176777 34.4697 0.46967L29.6967 5.24264C29.4038 5.53553 29.4038 6.01041 29.6967 6.3033C29.9896 6.59619 30.4645 6.59619 30.7574 6.3033L35 2.06066L39.2426 6.3033C39.5355 6.59619 40.0104 6.59619 40.3033 6.3033C40.5962 6.01041 40.5962 5.53553 40.3033 5.24264L35.5303 0.46967ZM34.4697 793.53C34.7626 793.823 35.2374 793.823 35.5303 793.53L40.3033 788.757C40.5962 788.464 40.5962 787.99 40.3033 787.697C40.0104 787.404 39.5355 787.404 39.2426 787.697L35 791.939L30.7574 787.697C30.4645 787.404 29.9896 787.404 29.6967 787.697C29.4038 787.99 29.4038 788.464 29.6967 788.757L34.4697 793.53ZM34.25 1V793H35.75V1H34.25Z" fill="#4EA8FD"/>
<path d="M51 1V793" stroke="#D0E5F9"/>
<path d="M67 1V793" stroke="#D0E5F9"/>
<path d="M83 1V793" stroke="#D0E5F9"/>
<path d="M99 1V793" stroke="#D0E5F9"/>
<path d="M115 1V793" stroke="#D0E5F9"/>
<path d="M131 1V793" stroke="#D0E5F9"/>
<path d="M147 1V793" stroke="#D0E5F9"/>
<path d="M163 1V793" stroke="#D0E5F9"/>
<path d="M179 1V793" stroke="#D0E5F9"/>
<path d="M195 1V793" stroke="#D0E5F9"/>
<path d="M211 1V793" stroke="#D0E5F9"/>
<path d="M227 1V793" stroke="#D0E5F9"/>
<path d="M243 1V793" stroke="#D0E5F9"/>
<path d="M259 1V793" stroke="#D0E5F9"/>
<path d="M275 1V793" stroke="#D0E5F9"/>
<path d="M291 1V793" stroke="#D0E5F9"/>
<path d="M307 1V793" stroke="#D0E5F9"/>
<path d="M323 1V793" stroke="#D0E5F9"/>
<path d="M339 1V793" stroke="#D0E5F9"/>
<path d="M355 1V793" stroke="#D0E5F9"/>
<path d="M371 1V793" stroke="#D0E5F9"/>
<path d="M387 1V793" stroke="#D0E5F9"/>
<path d="M403 1V793" stroke="#D0E5F9"/>
<path d="M419 1V793" stroke="#D0E5F9"/>
<path d="M435 1V793" stroke="#D0E5F9"/>
<path d="M451 1V793" stroke="#D0E5F9"/>
<path d="M467 1V793" stroke="#D0E5F9"/>
<path d="M483 1V793" stroke="#D0E5F9"/>
<path d="M499 1V793" stroke="#D0E5F9"/>
<path d="M515 1V793" stroke="#D0E5F9"/>
<path d="M531 1V793" stroke="#D0E5F9"/>
<path d="M547 1V793" stroke="#D0E5F9"/>
<path d="M563 1V793" stroke="#D0E5F9"/>
<path d="M579 1V793" stroke="#D0E5F9"/>
<path d="M595 1V793" stroke="#D0E5F9"/>
<path d="M611 1V793" stroke="#D0E5F9"/>
</g>
</g>
<defs>
<clipPath id="clip0_1_2949">
<rect width="614" height="794" fill="white"/>
</clipPath>
</defs>
</svg>
