<svg xmlns="http://www.w3.org/2000/svg"  viewBox="0 0 80 80" width="150px" height="150px"><path d="M 25.851562 11 C 23.079773 11 19.301373 13.122963 15.996094 17.369141 C 12.690814 21.615318 10 28.065142 10 36.873047 C 10 40.92421 11.299379 45.598087 13.685547 49.359375 C 14.343905 50.397137 15.113448 51.34272 15.947266 52.207031 C 12.837198 56.251915 10.263672 59.324219 10.263672 59.324219 A 1.0001 1.0001 0 1 0 11.736328 60.675781 C 11.736328 60.675781 14.323134 57.59111 17.457031 53.523438 C 19.36786 55.024968 21.583347 56.025391 24.128906 56.025391 C 28.143597 56.025391 31.968576 54.032992 35.310547 51.162109 C 36.008301 50.562711 36.592348 49.797178 37.248047 49.126953 C 38.275266 50.001139 39.440889 50.646484 40.837891 50.646484 C 42.833375 50.646484 44.619294 49.651682 46.191406 48.304688 C 47.763518 46.957693 49.163577 45.225779 50.425781 43.519531 C 51.687985 41.813284 52.812485 40.127471 53.75 38.914062 C 54.218757 38.307358 54.64537 37.819312 54.974609 37.525391 C 55.155958 37.363496 55.143474 37.388439 55.222656 37.347656 C 55.272006 37.503578 55.328141 37.661086 55.361328 37.984375 C 55.451738 38.865116 55.402503 40.185327 55.320312 41.517578 C 55.238132 42.849829 55.128365 44.19797 55.132812 45.28125 C 55.135013 45.82289 55.153712 46.290717 55.269531 46.744141 C 55.327441 46.970852 55.404162 47.204696 55.603516 47.457031 C 55.802869 47.709366 56.218826 47.957031 56.617188 47.957031 C 58.100588 47.957031 59.287804 47.059785 60.349609 45.976562 C 61.411419 44.893341 62.419734 43.54071 63.53125 42.224609 C 65.754281 39.592407 68.252176 37.201172 72 37.201172 A 1.0001 1.0001 0 1 0 72 35.201172 C 67.393824 35.201172 64.322875 38.189749 62.003906 40.935547 C 60.844422 42.308446 59.836945 43.644598 58.921875 44.578125 C 58.222619 45.291486 57.69098 45.468031 57.160156 45.630859 C 57.151356 45.491953 57.133512 45.444583 57.132812 45.273438 C 57.129013 44.339968 57.232712 42.997374 57.316406 41.640625 C 57.400096 40.283876 57.468178 38.917259 57.351562 37.78125 C 57.293253 37.213245 57.202108 36.70024 56.953125 36.210938 C 56.704142 35.721635 56.103242 35.201172 55.423828 35.201172 C 54.669848 35.201172 54.136964 35.591851 53.642578 36.033203 C 53.148193 36.474555 52.671133 37.037642 52.166016 37.691406 C 51.155781 38.998935 50.042655 40.675075 48.818359 42.330078 C 47.594064 43.985081 46.260763 45.613167 44.890625 46.787109 C 43.520487 47.961052 42.157407 48.646484 40.837891 48.646484 C 39.983146 48.646484 39.247675 48.280432 38.574219 47.730469 C 40.510997 45.528604 42.299053 43.182824 43.695312 40.730469 C 45.849637 36.946667 47.275107 33.177707 47.611328 30.177734 C 47.779438 28.677748 47.695778 27.346139 47.130859 26.255859 C 46.56594 25.16558 45.382994 24.445312 44.019531 24.445312 C 41.244776 24.445312 38.671509 26.283077 36.806641 29.074219 C 34.941772 31.865361 33.736328 35.677184 33.736328 39.966797 C 33.736328 42.740526 34.353543 45.320218 35.537109 47.289062 C 35.629299 47.442425 35.786439 47.520063 35.886719 47.666016 C 35.252033 48.318764 34.677263 49.069448 34.007812 49.644531 C 30.893439 52.319899 27.473715 54.025391 24.128906 54.025391 C 22.071609 54.025391 20.245781 53.208278 18.632812 51.927734 C 19.925429 50.198317 21.058213 48.847392 22.443359 46.753906 C 27.79481 38.665817 33.216797 28.328688 33.216797 18.992188 C 33.216797 17.956865 33.095902 16.057166 32.091797 14.294922 C 31.087684 12.532677 29.060923 11 25.851562 11 z M 25.851562 13 C 28.477204 13 29.633871 14.022151 30.353516 15.285156 C 31.073161 16.548162 31.216797 18.144509 31.216797 18.992188 C 31.216797 27.537686 26.03244 37.704979 20.775391 45.650391 C 19.450137 47.653356 18.371636 48.93466 17.130859 50.599609 C 16.496993 49.906461 15.909856 49.130197 15.375 48.287109 C 13.219168 44.888897 12 40.485884 12 36.873047 C 12 28.470952 14.547498 22.485979 17.574219 18.597656 C 20.600939 14.709334 24.247353 13 25.851562 13 z M 44.019531 26.445312 C 44.811068 26.445312 45.082213 26.648404 45.355469 27.175781 C 45.628725 27.703158 45.767687 28.681939 45.625 29.955078 C 45.339627 32.501356 44.013082 36.129036 41.957031 39.740234 C 40.662039 42.014727 39.016199 44.19568 37.244141 46.238281 C 36.311745 44.678209 35.736328 42.428454 35.736328 39.966797 C 35.736328 36.054409 36.852618 32.604405 38.46875 30.185547 C 40.084882 27.766689 42.152287 26.445312 44.019531 26.445312 z M 8 67 L 7.1992188 67.402344 L 7.0410156 68.283203 L 7.6523438 68.9375 L 8 69 L 8.8007812 68.597656 L 8.9589844 67.716797 L 8.3476562 67.0625 L 8 67 z M 12 67 L 11.199219 67.402344 L 11.041016 68.283203 L 11.652344 68.9375 L 12 69 L 12.800781 68.597656 L 12.958984 67.716797 L 12.347656 67.0625 L 12 67 z M 16 67 L 15.199219 67.402344 L 15.041016 68.283203 L 15.652344 68.9375 L 16 69 L 16.800781 68.597656 L 16.958984 67.716797 L 16.347656 67.0625 L 16 67 z M 20 67 L 19.199219 67.402344 L 19.041016 68.283203 L 19.652344 68.9375 L 20 69 L 20.800781 68.597656 L 20.958984 67.716797 L 20.347656 67.0625 L 20 67 z M 24 67 L 23.199219 67.402344 L 23.041016 68.283203 L 23.652344 68.9375 L 24 69 L 24.800781 68.597656 L 24.958984 67.716797 L 24.347656 67.0625 L 24 67 z M 28 67 L 27.199219 67.402344 L 27.041016 68.283203 L 27.652344 68.9375 L 28 69 L 28.800781 68.597656 L 28.958984 67.716797 L 28.347656 67.0625 L 28 67 z M 32 67 L 31.199219 67.402344 L 31.041016 68.283203 L 31.652344 68.9375 L 32 69 L 32.800781 68.597656 L 32.958984 67.716797 L 32.347656 67.0625 L 32 67 z M 36 67 L 35.199219 67.402344 L 35.041016 68.283203 L 35.652344 68.9375 L 36 69 L 36.800781 68.597656 L 36.958984 67.716797 L 36.347656 67.0625 L 36 67 z M 40 67 L 39.199219 67.402344 L 39.041016 68.283203 L 39.652344 68.9375 L 40 69 L 40.800781 68.597656 L 40.958984 67.716797 L 40.347656 67.0625 L 40 67 z M 44 67 L 43.199219 67.402344 L 43.041016 68.283203 L 43.652344 68.9375 L 44 69 L 44.800781 68.597656 L 44.958984 67.716797 L 44.347656 67.0625 L 44 67 z M 48 67 L 47.199219 67.402344 L 47.041016 68.283203 L 47.652344 68.9375 L 48 69 L 48.800781 68.597656 L 48.958984 67.716797 L 48.347656 67.0625 L 48 67 z M 52 67 L 51.199219 67.402344 L 51.041016 68.283203 L 51.652344 68.9375 L 52 69 L 52.800781 68.597656 L 52.958984 67.716797 L 52.347656 67.0625 L 52 67 z M 56 67 L 55.199219 67.402344 L 55.041016 68.283203 L 55.652344 68.9375 L 56 69 L 56.800781 68.597656 L 56.958984 67.716797 L 56.347656 67.0625 L 56 67 z M 60 67 L 59.199219 67.402344 L 59.041016 68.283203 L 59.652344 68.9375 L 60 69 L 60.800781 68.597656 L 60.958984 67.716797 L 60.347656 67.0625 L 60 67 z M 64 67 L 63.199219 67.402344 L 63.041016 68.283203 L 63.652344 68.9375 L 64 69 L 64.800781 68.597656 L 64.958984 67.716797 L 64.347656 67.0625 L 64 67 z M 68 67 L 67.199219 67.402344 L 67.041016 68.283203 L 67.652344 68.9375 L 68 69 L 68.800781 68.597656 L 68.958984 67.716797 L 68.347656 67.0625 L 68 67 z M 72 67 L 71.199219 67.402344 L 71.041016 68.283203 L 71.652344 68.9375 L 72 69 L 72.800781 68.597656 L 72.958984 67.716797 L 72.347656 67.0625 L 72 67 z"/></svg>